<svg xmlns="http://www.w3.org/2000/svg" width="256" height="256" viewBox="0 0 100 100"><rect width="100" height="100" rx="20" fill="#252241"></rect><path fill="#fff" d="M35.48 74.53L29.21 55.63L19.85 55.63L16.55 74.53L8.22 74.53L16.75 25.47L32.21 25.51Q40.20 25.51 44.44 29.35Q48.69 33.19 48.11 40.03L48.11 40.03Q47.74 44.78 44.95 48.26Q42.15 51.75 37.10 53.74L37.10 53.74L44.34 74.02L44.31 74.53L35.48 74.53ZM23.86 32.35L20.99 48.79L29.04 48.85Q33.39 48.85 36.31 46.58Q39.22 44.31 39.72 40.40L39.72 40.40Q40.23 36.59 38.38 34.55Q36.52 32.51 32.75 32.38L32.75 32.38L23.86 32.35ZM72.20 56.33L61.83 56.30L58.66 74.53L50.34 74.53L58.86 25.47L75.84 25.51Q83.52 25.51 87.90 29.70Q92.28 33.90 91.71 40.80L91.71 40.80Q91.10 47.94 85.88 52.14Q80.66 56.33 72.20 56.33L72.20 56.33ZM65.97 32.35L63.01 49.46L72.54 49.53Q77.05 49.53 79.94 47.24Q82.82 44.95 83.39 40.84L83.39 40.84Q83.86 37.10 81.99 34.82Q80.12 32.55 76.35 32.38L76.35 32.38L65.97 32.35Z"></path></svg>